<?xml version="1.0" encoding="UTF-8"?><svg id="Layer_2" xmlns="http://www.w3.org/2000/svg" xmlns:xlink="http://www.w3.org/1999/xlink" viewBox="0 0 315.85 392"><defs><style>.cls-1{mask:url(#mask);}.cls-2{fill:url(#linear-gradient);}.cls-2,.cls-3,.cls-4,.cls-5,.cls-6,.cls-7{stroke-width:0px;}.cls-8{stroke-width:.81px;}.cls-8,.cls-9{fill:none;stroke:#000;stroke-miterlimit:10;}.cls-9{stroke-width:.61px;}.cls-10{filter:url(#luminosity-invert-noclip);}.cls-4{fill:#bfbfbf;}.cls-5{fill:#fee000;}.cls-6{fill:#fff;}.cls-7{fill:#040504;}</style><filter id="luminosity-invert-noclip" x="0" y="21.01" width="315.85" height="340.29" color-interpolation-filters="sRGB" filterUnits="userSpaceOnUse"><feColorMatrix result="cm" values="-1 0 0 0 1 0 -1 0 0 1 0 0 -1 0 1 0 0 0 1 0"/><feFlood flood-color="#fff" result="bg"/><feBlend in="cm" in2="bg"/></filter><mask id="mask" x="0" y="21.01" width="315.85" height="340.29" maskUnits="userSpaceOnUse"><g class="cls-10"><path class="cls-6" d="m98.92,267.65c-5.32,30.46-29.21,51.73-53.37,47.51-24.15-4.22-40.96-32.87-35.64-63.33,4.43-25.34,16.7-43.18,38.77-46.92,2.01-.34,5.99-2.57,8.19,2.03,2.68,5.62,1.69,12.29,4.59,12.54,1.73.3,3.63-4.89,4.76-7.58.64-3.92.16-9.05,1.8-8.46,10.09,25.17,39.49,38.9,30.91,64.2Zm116.07-13.5c5.05,43.6,32.32,60.74,56.33,55.78,24.01-4.97,40.95-35.38,34.69-65.66-5.21-25.19-19.23-40.24-40.01-44.57-2.02-.28-7.3-2.25-9.36,2.42-2.51,5.7-3.59,11.46-6.48,11.8-1.72.36-1.49-3.89-2.71-6.55-.76-3.9,1.61-3.06,0-2.41-6.19,28.66-32.46,43.78-32.46,49.19Z"/></g></mask><linearGradient id="linear-gradient" x1="155.05" y1="-377.74" x2="165.1" y2="-395.14" gradientTransform="translate(0 -254.59) scale(1 -1)" gradientUnits="userSpaceOnUse"><stop offset="0" stop-color="#000"/><stop offset=".1" stop-color="#101010"/><stop offset=".19" stop-color="#2c2c2d"/><stop offset=".28" stop-color="#48484a"/><stop offset=".36" stop-color="#5f6163"/><stop offset=".45" stop-color="#797c7d"/><stop offset=".53" stop-color="#97999b"/><stop offset=".61" stop-color="#bfc0c3"/><stop offset=".69" stop-color="#ecedee"/><stop offset=".71" stop-color="#fff"/></linearGradient></defs><g id="Layer_3"><path class="cls-6" d="m43.89,360.75s116.79,72.07,235.12-2.68c-34.65-7.06-75.15-13.39-64.44-105.67l-51.45,22.56-23.86-3.65-27.27-14.36c-3.33,3.33,22.56,102.1-68.09,103.8Z"/><g class="cls-1"><path class="cls-3" d="m111.9,257.03c.49,12.5,1.14,24.67.65,36.93-.41,10.15-1.79,20.13-4.95,29.87-3.33,10.47-10.06,18.1-19.15,23.94-11.77,7.55-24.75,11.61-38.47,13.31-2.03.24-4.14.49-6.17-.33.08-.57.41-.65.65-.65,7.06.89,13.63-1.14,20.29-2.92,9.82-2.68,18.83-6.9,26.86-13.23,7.22-5.68,11.77-12.99,14.28-21.75,4.06-14.04,4.79-28.49,4.3-43.01-.16-5.68-.24-11.36-.49-17.04-.08-2.19-.65-4.3-.81-6.41-.08-1.06-.65-1.95-1.95-2.43.24,4.3.49,8.44.32,12.66-1.06,19.07-7.39,35.87-21.34,49.26-9.17,8.77-20.13,13.8-32.87,13.88-14.04.16-25.73-5.36-35.22-15.58-10.63-11.44-15.99-25.32-17.45-40.74-1.46-15.42,1.22-30.03,8.44-43.66,5.92-11.28,14.2-20.21,25.73-25.97,5.11-2.52,10.55-3.98,16.23-4.46,1.3-.08,2.19-.33,1.14-1.79-2.35-3.33-2.27-7.22-2.27-11.04,0-2.35.16-4.71.24-6.98.08-1.06-.32-1.87-.97-2.6-4.22-4.46-7.47-9.58-11.2-14.37-2.6-3.41-2.84-7.47-3-11.52-.24-5.19-.32-10.39,1.06-15.42.24-.89.32-1.95,1.06-2.44,1.3-1.05.89-1.78-.08-2.6-2.52-2.19-4.38-4.95-6.82-7.14-1.7-1.54-3.17-2.92-3.73-5.19-.49-2.03-.57-4.14-.08-6.17.57-2.6-.57-4.46-2.11-6.17-1.14-1.3-2.27-2.52-3.33-3.81-1.22-1.46-.81-3.33.73-4.55,4.38-3.33,9.66-4.22,14.77-5.52,1.95-.49,3.9-.89,5.92-.89,6.41-.08,11.36,2.43,14.45,8.2,1.62,3.08,5.19,4.71,8.93,3.25,3.73-1.46,8.6-.97,9.98,4.22.41,1.62,1.38,2.6,2.68,3.57,5.36,3.89,8.77,9.17,10.47,15.5,1.7,6.49,4.95,12.25,9.17,17.37,2.43,2.92,5.44,5.36,8.6,7.55,5.84,4.14,10.14,9.17,10.88,16.64.16,2.11,1.06,4.14,1.87,6.09,1.3,3,8.44,6.25,11.52,5.44,1.22-.32,1.95-1.3,2.52-2.35.24-.49.41-.97.57-1.46,1.62-6.17,2.6-5.27,8.2-5.03,2.6.08,5.11.24,7.63-.81.89-.41,1.54-.81,2.03-1.62,3.57-6.09,7.06-12.09,10.63-18.1.73-1.14.49-1.79-.32-2.84-3.9-4.38-8.6-6.01-14.45-6.09-12.09-.24-22.07-9.09-23.05-21.91-.65-8.77,3.49-14.61,9.17-20.21,3.73-3.65,8.03-6.57,12.17-9.66,6.09-4.54,7.22-11.77,5.6-18.75-.08-.16,0-.32-.08-.65,1.46,0,2.19.89,2.84,1.95,2.6,4.22,3.81,8.93,4.3,13.8.16,1.87.65,3.73.32,6.01,2.19-1.46,3.41-3.25,4.79-4.95,2.92-3.65,5.19-7.63,5.92-12.25.57-3.49-.41-6.33-2.92-8.85-3.41-3.33-7.47-5.52-11.85-7.3-3.33-1.38-6.41-3.25-8.85-5.84-3.25-3.41-3.41-8.6-.89-13.88,2.19-4.63,5.52-8.44,8.76-12.34.97-1.22,2.03-2.35,3-3.57.32-.41.73-.81,1.3-.41.57.41.24.89,0,1.38-1.3,2.35-2.52,4.71-3.25,7.22-.81,2.68-1.22,5.44-.81,8.28.65,4.46,3.33,7.14,7.3,8.85,4.14,1.7,8.68,2.27,12.9,3.73,17.04,5.84,29.46,16.15,33.44,34.57,1.22,5.52.41,10.88-1.38,16.07-3,8.85-6.49,17.61-12.99,24.59-5.6,6.09-11.69,11.85-18.91,16.15-1.22.73-2.6,1.3-3.9,1.7-1.14.32-1.22.81-.4,1.54,1.05.97,1.14,1.87.65,3.25-1.38,3.9-2.76,7.71-4.3,11.44.16.08.33.24.33.16,2.84-2.19,5.52-2.19,9.01-.81,3.25,1.3,7.06,1.54,10.23-1.38,2.52-2.27,8.76-2.52,11.28.49,1.54,1.79,3.9,2.43,6.25,2.84,2.6.49,5.27.73,7.55,2.43,1.87,1.38,2.19,2.6,1.46,4.71-.32.89-.57,1.7-.81,2.6-.24.97.08,1.7.89,2.11.89.49,1.79.32,2.43-.49,1.3-1.38,2.27-3,2.52-4.95.57-4.3,1.22-8.6,1.14-12.99-.08-5.92,2.27-10.96,5.84-15.5.81-.97,1.7-1.78,2.84-2.35,4.87-2.11,7.79-6.01,9.98-10.63,1.38-2.92,3-5.76,4.14-8.76.73-2.11,2.19-3.57,4.06-4.79,2.11-1.3,4.3-2.43,6.17-4.06.32-.32.73-.57,1.22-.65,3.57-.41,6.41-2.35,9.41-3.98,2.68-1.46,4.95-3.49,7.22-5.52,1.7-1.46,3.49-2.76,5.68-3.33,4.14-1.14,8.28-.32,11.44,2.11,3.82,3,7.47,6.49,9.33,11.2,1.05,2.6.57,4.87-.81,7.3-1.14,1.87-1.14,4.22-1.38,6.41-.16,2.27.16,4.54.57,6.74.41,2.68.41,5.44.24,8.2-.08,1.22-.49,2.44-1.14,3.49-.49.73-.97,1.3-2.03,1.22-1.05-.08-1.7-.57-2.11-1.46-.57-1.22-.73-2.43-.81-3.81-.33-4.38.49-8.68.65-12.99.08-2.6-.41-5.19-.32-7.71,0-.57,0-1.3-.65-1.71-.57.08-.49.57-.57.89-.81,7.22-3.41,13.88-6.82,20.13-3.17,5.76-7.55,10.88-11.61,16.07-2.92,3.81-4.95,8.11-6.25,12.66-.73,2.43-.57,5.03.16,7.47,2.19,7.06,2.52,14.04-.89,20.86-.73,1.38-.32,1.71,1.14,1.87,18.75,1.38,32.06,11.36,41.55,26.95,10.39,17.04,13.07,35.63,9.41,55.11-2.76,14.69-9.33,27.43-20.94,37.25-9.9,8.36-21.34,12.17-34.25,10.96-17.37-1.62-29.54-11.28-38.96-25.16-1.62-2.43-2.92-4.95-4.54-7.71-.41,1.95.08,3.65.24,5.36.65,7.14,1.87,14.28,3.81,21.26,3.08,11.28,9.98,19.56,19.8,25.73,9.41,5.92,19.8,9.33,30.6,11.61,1.14.24,2.35.24,3.49.89-.41.49-.97.4-1.38.32-16.88-3.08-32.63-8.6-45.04-21.1-6.01-6.09-8.93-13.72-10.88-21.83-3.57-15.1-3.9-30.35-3.08-45.69.24-4.95-.08-9.9.24-15.01-1.95,1.54-4.06,2.6-6.09,3.81-11.2,6.9-23.05,12.5-35.38,16.96-2.84,1.05-5.84.97-8.76,1.38-3.49.49-6.9-.08-10.39-.16-4.79-.08-9.09-2.03-13.47-3.49-7.55-2.52-14.2-6.98-21.35-10.31-2.27-1.14-3.98-2.92-6.09-4.14Z"/></g><path class="cls-3" d="m170.49,3.41c.32,3.98-4.46,9.25-8.04,10.23-.49.08-.89.24-1.22-.24-.32-.49.16-.73.41-.97,3.08-2.92,3.98-6.82,5.11-10.63.32-.97.81-1.79,2.03-1.79,1.3.08,1.46,1.06,1.62,2.03.08.49.08.97.08,1.38Z"/><path class="cls-3" d="m135.59,279.92c1.22,9.25,1.54,18.58,1.79,27.92-1.3-9.25-1.95-18.59-1.79-27.92Z"/><path class="cls-3" d="m192.08,292.66c2.19,4.38,4.3,18.59,2.84,20.78-.41-7.3-2.11-13.96-2.84-20.78Z"/><path class="cls-3" d="m185.18,360.67c.41-2.6,1.38-4.87,2.19-7.14,1.3-3.89,2.68-7.71,4.06-11.52.08-.33.24-.89.73-.73.65.16.32.73.16,1.14-1.87,5.36-3.73,10.63-5.6,15.91-.32.81-.57,1.79-1.54,2.35Z"/><path class="cls-3" d="m150.85,360.67c2.11,3.08,3.9,6.41,5.19,9.9-2.11-3.08-4.06-6.25-5.19-9.9Z"/><path class="cls-6" d="m52.33,135.7c3.49,3.25,6.57,6.33,8.6,10.23,3.57,6.82,7.14,13.72,10.06,20.78,2.11,5.03,3,10.47,3.49,15.91.32,3.41,1.7,6.49,2.27,9.82.81,4.22,1.14,8.52,2.68,12.5.49,1.22.97,2.43,1.62,3.49.97,1.7,3.17,2.43,4.87,1.87,1.38-.49,1.54-1.71,1.62-2.84.24-2.76-.16-5.6-.57-8.36-.08-.73-.24-1.46-.24-2.35,1.79,3,4.95,3.65,7.79,4.87,1.22.57,2.35.16,3-1.06,2.35-4.06,6.09-4.87,10.31-4.87.97,0,1.54.57,2.03,1.22,4.14,5.19,5.36,11.2,5.03,17.69-.08,2.11-.57,4.3,1.06,5.92,3.41,3.49,5.93,3.25,9.33-.08.41-.41.65-1.14,1.38-1.3.08.24.16.41.16.57-.57,6.09.89,11.69,3.41,17.12,2.11,4.71,3.16,9.58,2.52,14.93-.41,3.65.81,7.3,2.84,10.55.49.81,1.14,1.54,2.11,1.95,2.68,1.14,4.38.32,4.63-2.52.32-3.49,1.87-6.74,1.38-10.39-.08-.73.41-1.62.73-2.35,2.68-5.6,3-11.52,2.43-17.53-.08-1.38.24-1.38,1.38-1.14,4.3,1.14,8.6,1.7,13.07,1.3,1.05-.08,2.03-.32,2.92-1.06-.49-.49-.97-.89-1.7-.65-2.52,1.06-5.27.81-7.87.81s-5.03-1.14-7.39-2.19c-.65-.24-.73-.89-.65-1.46.41-4.14,2.68-7.22,5.93-9.58,1.3-.97,2.43-.16,2.35,1.46,0,.41-.32.73.08,1.14.49-.49.49-1.14.57-1.79.08-.41.16-.81.65-.73.49.08.57.49.49.89-.08,1.05-.24,2.11-.49,3.65.89-1.3,1.3-2.35,1.3-3.49-.08-1.38.65-1.54,1.71-1.38.32,0,.65.16.97.08,1.54-.49,2.44,0,2.27,1.79,1.14-.41-.24-1.95,1.22-1.95,1.14,0,1.87.49,2.27,1.79.08-1.38.89-1.71,1.87-1.71,2.27,0,4.38.16,6.65.65,3.16.65,6.65.41,9.58-1.3,2.92-1.79,6.25-2.11,9.49-2.19,3.65-.08,3.33.24,4.14,3.9.97,4.14-.16,8.28,1.06,12.34,1.7,6.01,1.38,12.34,3.08,18.42.4,1.62.89,3.17,2.19,4.22,1.3.97.89,1.46-.24,2.11-8.11,4.87-16.47,9.09-25.16,12.66-3.65,1.46-7.22,3.65-11.12,3.98-6.9.49-13.88,1.14-20.7-1.38-3.41-1.3-7.06-2.27-10.39-3.65-6.09-2.68-12.42-4.79-17.86-8.77-4.54-3.25-8.85-6.74-13.23-10.23-6.98-5.68-12.9-12.17-18.26-19.32-3.73-5.03-8.03-9.66-11.28-15.1-1.95-3.25-3.81-6.57-5.28-10.15-1.38-3.17-2.76-6.41-5.03-9.09-1.22-1.46-1.62-3.41-2.03-5.19-.65-3-1.46-6.01-2.27-9.01-1.14-4.14-1.95-8.36-2.84-12.58-1.3-5.68-1.95-11.52-3.41-17.12-.65-2.43-.24-5.11-1.3-7.47-.89-1.95-1.38-3.98-1.54-6.01.16-.24.24-.49.24-1.3Z"/><path class="cls-6" d="m88.85,196.4c-1.79-1.79-2.76-4.38-5.44-5.36.89,2.44,1.14,4.87,1.62,7.31.73,3.08,1.14,6.25.65,9.41-.08.81-.24,1.62-1.14,1.87-1.06.32-1.54-.65-1.95-1.3-1.7-2.92-2.35-6.17-3.17-9.33-1.38-5.52-1.62-11.28-2.19-16.88-.81-7.47-2.52-14.69-6.01-21.43-2.11-4.14-4.14-8.2-6.09-12.42-2.76-5.68-7.06-10.06-11.69-14.12-.57-.49-1.22-.97-1.7-1.78.97-.24,2.03-.49,2.92-.81.57-.24,1.06-.73.73-1.38-.24-.65-.81-.32-1.38-.24-3.73.89-7.55,1.06-11.36.57-3.73-.49-6.33-2.68-8.68-5.44-1.14-1.38-2.19-2.68-3.73-3.57-1.38-.89-2.11-2.52-2.43-4.14-.32-1.62-.81-3.41-.49-5.03.81-4.63-1.79-7.47-4.63-10.31-1.87-1.87-1.87-4.06.49-5.44,1.7-1.06,3.49-1.95,5.6-1.95.97,0,1.79-.73,2.68-1.06,6.25-2.03,12.5-3.49,18.91-.49,1.46.65,2.6,1.79,3.17,3.25,1.06,2.43,2.52,4.71,3.73,7.06,1.87,3.49,4.54,6.25,7.87,8.44,4.38,2.92,5.68,7.3,5.36,12.34-.08,1.78-.32,3.57-.57,5.44-.08,1.14.24,1.87,1.38,2.11,1.79.49,2.43,2.03,1.95,3.49-.73,2.19-.24,4.06.08,6.17,1.06,6.57,2.27,13.23,4.46,19.48,2.11,6.09,4.3,12.26,8.77,17.21,2.19,2.44,4.87,3.81,8.12,4.95,6.17,2.27,12.5,2.6,18.83,3.25,3.82.41,6.33,2.76,8.36,5.76,1.38,1.95,2.35,4.22,3.25,6.41,1.62,3.98,3.81,7.63,6.01,11.28.81,1.3,1.7,2.52,2.92,3.33.65.41,1.14.89.89,1.71-.08.32-.08.89.41.97.49.08.65-.32.81-.65,1.95-2.6,3.65-5.44,6.74-6.9,2.35-1.14,4.95-1.87,7.47-2.68.97-.32,1.46-.81,2.11-1.78,1.71-2.76,3.08-5.76,5.44-8.04,3.49-3.33,6.98-6.74,12.01-7.79,2.35-.49,4.71-.89,7.14-.97,2.27-.08,3.98.89,5.19,2.76,2.92,4.38,7.3,7.22,11.6,9.82,4.38,2.68,12.01.08,14.77-4.38,5.11-8.44,12.42-13.39,22.24-15.01,4.38-.73,7.22-4.14,8.85-8.28.65-1.62.81-3.41,1.22-5.11.41-1.54,1.06-2.92,2.68-3.57.73.97-.32,1.3-.65,1.79.49-.4.97-.97,1.46-1.46-.33.08-.57,0-.81-.24.97-1.38,2.52-2.19,3.9-2.76,3.98-1.62,5.6-4.95,7.06-8.52.89-2.35,2.03-4.54,3.49-6.65-.65,3.98-1.22,8.2-3.41,11.44-1.95,2.92-3.73,6.01-5.6,8.93-.41.65-.81,1.22-.89,1.95-.33,5.27-3.65,9.17-6.09,13.47-.32.49-.73.89-1.3,1.14-6.74,2.84-12.66,6.98-18.42,11.44-1.38,1.06-2.43,2.35-2.76,4.06-.49,2.27-1.87,4.06-3.73,5.52-8.52,6.9-10.55,15.99-8.52,26.29.65,3.41,1.46,6.74,2.35,10.06.89,3.41.81,6.82.81,10.23,0,1.87-.73,3.08-2.03,3.9.16-2.35-1.71-3-3.33-3.73-1.22-.57-1.54-1.46-.49-2.27.49-.41.41-.81.32-1.14-1.3-7.55-1.62-15.18-3.08-22.72-.08-.57-.32-1.06-.89-1.46.81,7.3,1.7,14.61,2.52,21.83-.89-1.46-.89-3-.97-4.55-.08-2.92-.97-5.76-1.54-8.6-.65-3.89-.81-7.71-1.06-11.6-.24-4.3-2.27-6.33-6.49-6.74-3.81-.33-7.47.57-11.04,1.62-4.95,1.46-8.68-.16-10.31-4.95-.89-2.43-1.87-4.79-1.87-7.47,0-.89-.89-.97-1.54-1.3-.65-.24-.89.08-1.22.65-2.52,4.06-6.09,6.98-9.9,9.74-2.03,1.46-3.98,2.84-6.17,4.14-4.38,2.6-6.74,6.49-7.22,11.61-.49-.49-.57-1.46-1.38-1.3-.73.08-.81.89-1.06,1.54-.08.24-.16.49-.16.73-.16,3.33-.32,6.57-.32,9.9,0,1.05-.08,2.92,1.22,2.92,1.3.08,1.14-1.79,1.38-2.84.32-1.62.4-3.33.73-4.95.33,4.14.16,8.28-1.54,12.01-1.95,4.22-2.27,8.76-3.08,13.23-.24,1.38-.65,2.76-.81,4.14,0,.41-.08.89-.57.89-.4,0-.65-.41-.89-.73-2.03-2.43-2.68-5.44-2.52-8.36.49-6.49-.89-12.5-3.65-18.26-1.87-3.9-2.6-8.03-2.52-12.26,0-2.11,0-4.3-.24-6.41-.16-1.54-.81-1.46-1.95-.81-2.19,1.22-4.06,2.92-5.92,4.63-1.7,1.46-2.68,1.06-3.33-1.14-.32-.97-.4-1.95-.24-2.92.73-4.22-.73-8.2-1.22-12.34-.49-4.06-3.25-6.41-5.68-8.93-1.95-2.03-4.95-1.38-7.47-1.14-3.41.41-6.41,1.7-8.12,4.95-.41.81-.97.97-1.95.73-1.7-.57-3.08-1.38-3.73-3.08.41-.24.73-.08.97.08-1.3-.49-1.06-2.19-1.95-2.92.41.73,1.7,1.3.65,2.27Z"/><path class="cls-5" d="m145.25,108.59c2.11.32,4.38-1.62,6.09.49,1.3,1.62,1.62,3.65,1.14,5.93-1.3-.97-.73-2.68-2.03-3.81-.49,2.84-1.62,5.44.89,7.63-.81.89-1.3-.32-1.95-.08-.24.49-.16.89.16,1.06,3.08,1.79,2.6,4.3,1.62,6.98-.24.81-.16,1.46,0,2.19,1.22,4.22,2.92,8.12,5.68,11.69-3.57-2.19-7.3-1.95-11.28-1.95-5.92,0-10.55-3-14.53-7.55-5.44-6.17-6.98-20.78-.41-27.43,3.41-3.41,6.57-6.98,10.39-9.9,1.3-.97,2.6-1.87,3.98-2.76,5.68-3.81,9.25-8.85,8.85-16.07,1.87,4.38,2.52,8.85,2.52,13.47s-2.92,8.36-5.76,12.42c1.54-.16,2.6-.73,3.16-1.54,3-4.63,7.71-7.63,11.04-12.01,2.52-3.33,4.79-6.74,5.92-10.88,1.3-4.79.24-8.77-3.41-12.09-4.06-3.73-8.68-6.33-13.72-8.36-2.19-.89-4.14-2.11-5.92-3.65-3.33-3-3.25-6.74-2.19-10.63,1.14-4.14,3.49-7.63,6.25-10.88.65.24.32.73.32,1.06-1.3,7.95,2.84,13.47,9.74,16.48,3.73,1.62,7.79,2.35,11.77,3.49,14.93,4.38,26.13,12.9,31.08,28.24,2.52,7.71,1.62,15.1-1.3,22.48-2.43,6.33-5.11,12.58-8.93,18.34-3.9,5.84-9.33,10.06-14.28,14.77-2.92,2.84-6.49,4.46-10.14,5.93-1.71.65-2.6.16-3.17-1.54-2.19-6.82-4.54-13.64-6.33-20.61-.41-1.71-.97-3.41-1.54-5.03-.32-.89-.65-1.87-1.62-2.27-1.62-.65-2.52-1.87-3.33-3.33-1.62-3-2.52-3.25-5.6-1.87-1.14.32-2.52.32-3.16,1.62Z"/><path class="cls-6" d="m254,180.42c-.08-1.54.24-3.08-.16-4.87-.97,1.05-1.14,2.19-1.46,3.25-1.22,4.14-1.79,8.36-2.44,12.58-.97,5.68-3.16,10.88-5.19,16.15-3.57,9.41-8.44,18.26-14.85,26.05-4.3,5.27-9.25,9.98-14.61,14.2-.57.49-1.22.89-2.03,1.38.41-6.98-2.19-13.31-3.41-19.8-1.05-5.44-.89-10.96,1.54-15.99,1.46-3.16,3.81-5.92,6.57-8.12,2.03-1.62,3.49-3.49,4.06-6.01.41-1.62,1.38-2.76,2.6-3.73,4.38-3.49,8.93-6.9,13.96-9.09,7.79-3.41,10.39-10.06,12.26-17.37.65-2.35,2.27-4.22,3.25-6.41.57-1.22,1.06-2.52,2.6-3.82-1.22,4.63-2.6,8.77-2.43,13.23.97-2.84,1.87-5.76,2.84-8.6.73-2.19,1.54-4.38,2.35-6.57.32-.89,1.22-1.62.16-2.76-.49-.49.41-.97.81-1.3,1.62-1.3,3.33-2.43,4.95-3.73,2.27-1.87,2.35-3.73-.08-5.36-2.03-1.38-1.87-2.76-1.3-4.79,1.79-6.01,4.79-11.2,9.09-15.66.73-.73,1.46-1.38,2.11-2.11-2.76,1.38-4.79,3.57-6.49,6.09-3.08,4.46-5.36,9.33-6.17,14.77-.24,1.3.24,1.87,1.46,2.27,2.27.73,2.52,1.38.65,2.92-1.87,1.62-3.81,3-6.01,4.63-.24-1.95-.32-3.57.24-5.11,2.84-8.12,5.44-16.39,10.23-23.62,1.46-2.19,2.19-4.87,3.81-6.98.89-1.14,1.7-2.35,3-2.92,2.84-1.3,5.93-.4,8.85-.32.73,0,.49.73.41,1.22-.49,2.35-.97,4.71-1.79,6.98-1.22,3.17-2.27,6.49-3.49,9.66-1.62,4.22-4.87,7.47-7.39,11.12-2.43,3.49-5.11,6.9-7.63,10.31-.89,1.22-1.62,2.52-2.35,3.82.32-1.14.73-2.35,1.05-3.49-.16-.08-.32-.16-.49-.16-1.79,4.63-3.57,9.17-5.36,13.8-.41-.89.49-1.62.16-2.76-1.14,2.03-1.79,3.98-2.11,6.09-.41,3.08-.81,6.17-1.14,9.25.16.73-.16,1.22-.65,1.71Z"/><path class="cls-5" d="m101.02,247.37c.41.49.49.65.65.73,3.65,1.95,3.81,5.36,3.98,8.85.65,12.5-1.14,24.59-6.17,36.11-5.76,13.23-14.53,23.94-27.59,30.6-16.48,8.44-35.06,5.68-49.51-7.14-8.28-7.3-13.72-16.48-17.12-26.95-4.79-14.61-5.11-29.46-1.14-44.31,3.9-14.45,11.2-26.78,23.29-35.87,7.3-5.44,15.34-9.17,24.59-9.66,1.38-.08,2.84-.16,4.22-.16.65,0,1.3,0,1.95.24.81.24,1.38.97,1.22,1.79-.16.89-1.06.57-1.62.49-4.79-.49-9.5.08-14.04,1.38-11.28,3.25-19.8,10.39-26.13,20.05-9.5,14.37-12.66,30.19-10.39,47.23,1.79,13.31,6.98,25.08,16.64,34.57,6.82,6.74,15.1,10.88,24.75,11.85,15.1,1.54,27.27-4.22,37.17-15.18,9.01-9.9,13.72-21.83,15.42-35.06.73-5.92.81-11.93-.16-17.85.08-.4.08-.89,0-1.7Z"/><path class="cls-4" d="m258.22,117.52c.08,1.62.73,2.84,1.14,4.22.65,2.03.65,3.98-.16,6.01-1.54,3.9-1.62,8.12-1.87,12.26-.32,4.38-2.19,7.95-4.46,11.36-1.14,1.7-1.79,3.73-3.25,5.19-.89.89-1.71,1.62-3,1.95-3.98.81-7.06,4.06-7.63,8.12-.65,4.95-3.41,8.44-7.63,10.88-1.62.89-3.49.89-5.28,1.38-6.65,1.71-12.42,4.87-16.39,10.63-.57.73-1.14,1.3-2.27,1.14-7.47-1.06-14.93-1.62-22.48-2.03-1.3-.08-2.27-.4-3.08-1.54-1.38-1.95-3.41-2.76-5.76-2.68-3.98.24-7.95.81-11.44,2.68-1.87.97-3.81,1.22-5.76,1.3-1.79.08-3.49,0-5.28.08-1.06,0-1.46-.24-.97-1.38,1.54-3.41,3-6.9,4.46-10.39.49-1.14,1.14-1.62,2.35-1.14s2.27.24,3.49-.24c2.27-.89,4.63-.24,6.9.32,3.33.89,6.65,1.79,9.9,2.76,3.65,1.05,6.98-.08,10.15-1.46,2.52-1.06,5.03-2.19,7.06-4.3,2.03-2.11,4.55-1.3,6.98.97.89.81,1.79,1.79,2.27,2.84,1.7,3.33,4.71,4.14,7.87,3.49,3.65-.65,6.33-2.92,6.9-6.98.32-2.35.89-4.71,1.95-6.9.57-1.3,1.14-2.27,3-1.95,1.78.32,3.33-.81,3.81-2.68.65-2.6,1.22-5.19.73-8.03-.57-2.84.32-5.44,2.11-7.79,2.51-3.49,5.84-6.01,9.25-8.44,2.68-1.87,3.81-4.87,5.44-7.47,1.95-3.08,3.9-6.09,6.17-8.93,1.3-1.22,2.92-2.27,4.79-3.25Z"/><path class="cls-5" d="m215.62,270.42c1.79,6.74,4.3,13.15,8.03,18.99,7.63,12.09,17.94,20.7,32.38,23.13,12.17,2.03,23.29-1.06,32.71-9.01,14.2-12.01,20.05-27.84,20.37-46.02.24-17.29-4.87-32.79-16.72-45.61-9.9-10.71-22.16-15.83-36.85-14.12-.4.08-.89.08-1.05-.08-.4-.41.16-.81.33-1.14.49-.89,1.22-1.14,2.27-1.22,15.83-.89,28.65,5.44,38.96,16.8,14.85,16.39,19.88,36.12,17.86,57.7-1.22,12.58-5.44,24.1-13.15,34.25-7.79,10.23-17.77,17.29-30.6,19.4-9.66,1.62-18.91-.16-27.43-4.87-13.07-7.14-21.59-18.18-27.11-31.73-.16-.41-.32-.89-.32-1.3-.16-5.11-.16-10.15.32-15.18Z"/><path class="cls-4" d="m145.17,177.25c-.65,1.14-1.22,2.35-2.03,3.49-1.54,2.19-1.05,4.46-.08,6.65.49,1.14.49,1.54-.89,1.7-5.52.49-10.96.97-16.47,1.54-.81.08-1.54.08-2.11-.57-3.25-4.14-7.87-4.63-12.58-4.95-2.68-.16-5.44-.24-8.12-.57-2.03-.24-3.49-1.87-5.6-2.11-.32,0-.65-.32-.89-.24-5.44.65-8.12-3.41-10.31-6.98-3.49-5.68-6.25-11.85-7.87-18.5-1.38-5.52-2.52-11.12-3.49-16.72-.41-2.44.08-4.79.32-7.14.16-1.87,2.43-2.19,4.3-.81,1.06.81,1.7,1.87,1.62,3.17-.57,6.82,3.41,11.28,8.03,15.34,3.57,3.17,7.39,6.09,12.09,7.55,2.19.73,3.65,2.35,4.71,4.38.41.81.89,1.7,1.54,2.19,3.57,2.76,4.63,6.65,4.95,10.88.16,1.95,1.14,3.57,2.6,4.87,2.03,1.87,4.06,3.81,6.25,5.52,4.46,3.41,12.34,2.27,15.83-2.19,2.19-2.68,4.79-5.03,8.2-6.49Z"/><path class="cls-6" d="m226.65,141.7c-1.14.32-1.62,1.62-3,2.27,1.14-2.19,2.19-4.14,4.06-4.95,6.41-2.68,9.5-8.12,12.34-13.88.97-2.03,1.95-4.14,2.68-6.25,1.38-3.73,4.95-4.87,7.79-6.98,1.87-1.3,4.06-1.62,6.09-2.35,1.05-.32,2.03-.89,3.08-1.38-.08,1.62-1.05,2.43-2.35,3.08-5.68,2.76-9.33,7.55-12.58,12.66-.24.41-.32.81-.08,1.54,3.49-5.68,7.47-10.71,13.47-13.96.16,1.87-.16,3-1.79,3.98-4.79,2.76-7.71,7.22-10.23,11.93-2.6,4.79-6.17,8.36-10.47,11.69-4.54,3.49-8.12,7.79-7.47,14.28.16,2.11.24,4.22-.32,6.41-.4,1.46-1.05,2.19-2.6,1.87-1.79-.32-2.84.65-3.65,2.03-1.54,2.6-2.6,5.44-2.76,8.44-.24,3.9-4.54,6.57-8.68,5.19-.89-.24-1.22-.89-1.7-1.54-1.87-2.51-3.57-5.27-6.82-6.33-2.52-.81-4.54-.32-6.41,1.38-3.57,3.33-8.12,4.71-12.82,5.52-.73.16-1.38,0-2.03-.57,4.22-1.22,8.52-2.19,12.5-5.11-1.38.08-2.19.57-2.92.97-2.76,1.46-5.76,2.52-8.76,3-1.87.24-3.98.73-6.01.08-1.7-.57-3.49-1.06-5.19-1.54-2.92-.81-5.84-1.14-8.77-.08-.65.24-1.54.41-2.03-.16-.4-.57.33-1.14.65-1.7.32-.65.73-1.22,1.05-1.87,1.38-3,3.08-5.52,6.82-5.6.24,0,.49-.16.65-.32.08-.08.08-.24.24-.49-1.14.24-2.19.49-3.25.65-.32.08-.81.08-.89-.41,0-.32.24-.65.57-.65,2.11-.32,3.57-1.71,5.36-2.68,1.3-.65,2.6-.57,3.9,0,4.46,1.87,8.76,2.6,12.99-.81,3-2.35,6.65-2.03,9.58.32,2.27,1.7,4.79,2.84,7.63,3.25,1.54.24,3.08.49,4.54,1.06,1.46.57,1.79,1.54,1.46,2.92-.16.57-.32,1.14-.57,1.7-1.38,3.57.41,5.03,3.49,6.33,1.14.49,2.11-.08,2.92-.97,2.11-2.19,2.6-5.03,2.92-7.87.41-3.73.73-7.47.65-11.28,0-1.05.08-2.03.65-3.33.24,1.87-.32,3.41.41,4.95.16-5.44,1.46-10.39,5.68-14.2,0-.16.08-.24.16-.32.32-.24.57-.49.81-.65-.08.24-.41.73-.97.73Z"/><path class="cls-6" d="m148.98,170.76c-.81,1.62-1.38,2.68-3.41,3.08-2.52.49-4.46,2.43-6.49,4.14-1.46,1.22-2.76,2.6-3.89,4.06-2.27,2.92-9.66,4.87-12.91,1.7-2.27-2.11-4.95-3.73-6.82-6.33-.65-.89-1.14-1.87-1.06-2.84.24-3.08-1.62-5.6-2.27-8.36-.16-.57-.49-1.14-.89-1.46-2.11-1.38-3.49-3.41-4.71-5.52-1.3-2.27-3.73-3.16-6.01-4.14-7.63-3.25-13.55-8.44-17.37-15.91-.73-1.46-.97-3.08-.89-4.71.16-2.35-1.3-3.65-3.25-4.63-1.62-.81-3.33-1.22-4.87.08-.65.57-1.22.49-1.95,0-.89-.57-.73-1.38-.65-2.19.49-3.41.89-6.74-.49-10.14-.97-2.52-2.35-4.55-4.63-6.01-3.98-2.6-6.17-5.19-8.36-9.58.49-.24.73.08.97.32,1.62,1.62,3.57,1.62,5.44.73,2.35-1.14,4.71-.73,6.98-.08,1.06.32,1.87,1.06,2.03,2.11.41,2.27,1.87,3.65,3.57,4.87,3.98,2.76,6.66,6.57,8.36,10.96,1.46,3.57,2.6,7.3,3.81,11.04.41,1.3,1.14,2.43,1.95,3.57,1.14,1.54,2.27,3.16,3.33,4.79,2.76,4.14,6.57,7.14,10.47,9.98,5.03,3.73,9.09,7.95,9.82,14.53.24,2.52,1.3,4.87,2.11,7.3.33.97.81,1.87,1.62,2.35,3.25,2.11,6.49,4.38,10.47,5.03,3.08.49,4.79-.41,6-3.25.16-.32.24-.57.32-.89,1.62-4.95,1.62-5.03,6.82-4.71,2.27.16,4.46.32,6.82.08Z"/><path class="cls-6" d="m42.67,151.44c-.08-6.25.32-12.26,1.46-18.18.08-.41.24-.97.65-.89,1.46.32,2.92-.24,4.38.16,1.06.33,1.06,1.22,1.06,2.03-.08,6.82,1.06,13.55,2.43,20.21.81,4.14,1.62,8.44,3.17,12.42,1.14,2.92.97,6.17,2.11,9.09.32.89-.24,1.06-.89.73-.81-.32-1.14-.08-1.06.73.65,5.6,1.7,11.12,4.95,15.99.08.16.32.16.97.49-2.19-4.63-4.54-8.76-4.3-13.88,1.62,2.19,2.52,4.46,3.33,7.22.57-2.03-.89-3.41-.57-5.44.81,2.19,1.62,3.98,1.3,6.01-.32,1.7.81,3,1.46,4.3,1.7,3.57,2.6,7.14,1.79,11.2-.65,3.41,0,6.98-1.38,10.31-.41,1.05-.81,2.03-1.3,3-.16.41-.41.97-.97.81-.49-.08-.49-.73-.57-1.14-.49-2.92-1.06-5.84-1.79-8.76-.32-1.14-.49-2.27-.97-3.33-.24-.49-.73-1.14-.16-1.62.49-.4,1.14-.08,1.7,0,.57.08,1.14.89,1.7.16.49-.65.16-1.38-.08-2.03-.73-1.62-1.62-2.76-3.65-2.43-1.7.24-2.6-.65-3.49-2.11-2.52-3.9-3.17-8.04-2.6-12.5.08-1.06,0-2.11.16-3.08.65-3.25-1.22-5.36-3.17-7.47-4.14-4.46-7.79-9.17-10.71-14.53-.57-.97-.89-1.95-.65-3.17.32-1.46-.89-2.6-1.14-4.06-.73-4.87-.16-9.5,1.14-14.2.41-1.54,1.06-3,1.46-4.63.32-1.22.81-1.71,2.19-1.3,3.41.89,3.57,1.06,2.35,4.3-.32.89-.57,1.7-.57,2.68,0,3.33.16,6.57-.57,9.82-.32,1.22.08,2.19.81,3.08Z"/><path class="cls-6" d="m258.31,145.35c.24-2.03.49-4.14.73-6.17.16-1.54.73-3,1.14-4.46,1.22-4.63,2.52-9.17.65-14.04-1.7-4.63-1.7-9.25,2.27-13.15,1.3-1.3,2.27-3,3.41-4.46,2.52-3.17,5.84-5.28,9.5-6.49,4.63-1.54,8.93-.32,12.5,3.08.81.81,1.54,1.7,2.35,2.68-.81.49-1.62-.97-2.11.08-.49.89.08,1.79.65,2.52,1.62,2.11,2.92,2.27,3.98.41,1.79,2.6,2.11,5.52,2.19,8.44,0,.24-.08.49-.24.73-2.92,3.9-2.43,8.28-2.03,12.66.33,3.57,1.38,7.14.33,10.79-.41,1.38-.57,3.41-2.35,3.25-1.62-.08-1.46-2.03-1.62-3.33-.65-4.46.41-8.93.49-13.39,0-3,.16-6.09-.41-9.09-.32-1.79-1.3-2.92-3.25-3.41-2.19-.57-4.3-1.22-6.65-.81,1.62-1.46,3.73-.57,5.6-1.06-2.19-1.3-5.11-.97-8.28.65-4.22,2.19-6.74,5.76-8.52,9.98-.97,2.11-2.11,4.14-3.57,5.93-.57-1.62.41-3,.89-4.3.57-1.62,1.3-3.25,2.19-4.38-1.3,2.03-2.35,4.46-3.08,7.06-.16.57-.57,1.06.08,1.62-1.22,2.68-1.62,5.68-3.08,8.36-1.46,2.76-1.54,6.09-2.84,9.01-.32.49-.4.97-.89,1.3Z"/><path class="cls-6" d="m254,180.41v4.71c0,.4-.16,1.06.49,1.14.65.08.57-.57.65-.97.08-.41.08-.81.08-1.14.32-6.01,2.03-11.85,3.49-17.61.16-.57.24-1.3.97-1.79.4,6.25,2.92,12.01,2.35,18.34-.41,3.81-1.95,7.22-3.65,10.55-.57,1.06-1.7,1.06-2.6.65-1.62-.73-2.03.57-2.76,1.38-.81.89-.89,2.11-.49,3.08.32.89,1.3.08,1.95.16.57.08,1.54-.24.97.89-1.7,3.25-2.92,6.82-4.46,10.15-.08.24-.24.49-.73.41-.08-1.38-.32-2.76-.32-4.14.16-3.98.32-7.87,1.95-11.77,1.22-3,1.06-6.49,1.54-9.74.16-1.54.41-2.92.57-4.3Z"/><path class="cls-2" d="m158.32,116.62c.89,3.33,1.7,6.57,2.6,9.9.08.24,0,.57-.08.73-2.11,3.57-3,7.55-2.92,11.93-3.82-3.73-4.63-8.12-3.82-12.82.57-3.41,1.95-6.66,4.22-9.74Z"/><path class="cls-6" d="m158.07,214.99c.33-.97,1.06-1.14,1.62-1.54,2.27-1.87,4.87-3.41,6.82-5.76,1.62-1.95,2.84-1.62,3.49.73,1.14,3.73,3.65,6.01,7.14,7.39.57.24,1.06.49,1.54.89-2.19-.49-4.63,0-6.41-1.79-.41-.41-.57.16-.81.08-4.38,0-8.85.89-13.39,0Z"/><path class="cls-7" d="m152.64,130.66c-.81-1.62-1.3-3.17-.41-4.87.81-1.54.32-3.17.08-4.71-.24-1.54-.08-3.25-1.46-4.46-.4-.32-.32-1.06,0-1.62.16,0,.24-.08.41,0,.65.32,1.05,1.38,1.95.89.81-.49.24-1.38.32-2.11.08-2.84-.65-5.28-3.65-6.41,1.46-.65,1.62-.65,2.43.33.65.89,1.22,1.78,1.79,2.76.57.97,1.22,1.79,2.27,2.27,1.46.65,1.87,1.79,1.06,3.17-2.68,4.54-4.46,9.41-4.79,14.77Z"/><path class="cls-6" d="m162.21,145.11c-2.19-2.11-3.9-3.98-3.57-7.14.32-3.41.73-6.74,2.43-9.82,3.82,5.44,1.71,11.12,1.14,16.96Z"/><path class="cls-6" d="m150.85,184.72c-1.54-1.62-2.68,0-3.9.57-.73.41-1.3,1.87-2.03,1.38-.81-.57-.81-2.03-.49-3.08.49-1.46,1.14-3,2.43-3.9,2.27-1.7,4.87-2.43,8.12-3.41-1.62,3.09-2.19,6.09-4.14,8.44Z"/><path class="cls-6" d="m164.57,157.77c-1.38,3.33-2.43,6.25-4.3,8.36-1.95,2.19-5.44,2.43-7.71,4.54-.16-.16-.32-.32-.49-.49,1.95-3.08,3.49-6.49,5.92-9.17,1.38-1.54,3.98-2.03,6.57-3.25Z"/><path class="cls-6" d="m147.93,177.49c1.79-5.19,6.41-7.22,11.04-9.5-1.54,5.84-5.27,8.85-11.04,9.5Z"/><path class="cls-6" d="m158.89,159.56c1.46-4.79,5.11-9.17,9.01-10.88-.49,2.6-1.3,5.03-2.43,7.14-1.3,2.35-4.22,2.19-6.57,3.73Z"/><path class="cls-6" d="m150.77,184.64c.08,2.52-.41,3.08-3.33,3.08.24,1.06,1.3.89,1.95,1.3.65.41,1.3.89.73,1.71-.81,1.05-.97,2.35-1.54,3.65-.89-1.62-1.54-3.08-2.43-4.38-.89-1.38-.73-2.43.49-3.49,1.3-.97,2.52-1.78,4.14-1.87Z"/><path class="cls-6" d="m149.39,195.02c.16-.57.16-1.22.41-1.7.24-.57.24-1.46.97-1.54.65-.08.73.81,1.14,1.14,2.11,1.79,1.62,3.81.73,5.92-.32.81-.81,1.06-1.3.08-.65-1.22-1.7-2.35-1.95-3.9Z"/><path class="cls-6" d="m207.82,191.61c-.49,1.14-1.3.81-1.78.65-7.14-2.03-14.61-.97-21.75-2.43,7.87.08,15.66.73,23.54,1.79Z"/><path class="cls-6" d="m164.24,137.64c.57,1.46.89,2.68,1.54,3.65,1.3,1.79,1.14,3.17-.65,4.46-.41.32-.73.81-1.3.65-.73-.24-.65-.89-.65-1.46,0-2.43.24-4.79,1.06-7.3Z"/><path class="cls-6" d="m143.47,227c1.14,4.06.32,8.04-.73,11.93v-12.01c.24,0,.49.08.73.08Z"/><path class="cls-3" d="m88.85,196.4c-.24-1.71-1.46-2.92-1.7-4.71,2.27,1.95,2.52,5.76,6.33,6.57-2.03.65-2.76-.73-3.98-1.14-.16-.24-.41-.49-.65-.73Z"/><path class="cls-6" d="m160.51,189.75h-7.71v-.33c2.52-.16,5.11-.24,7.63-.41.08.24.08.49.08.73Z"/><path class="cls-6" d="m167.25,144.79c.81.32,1.14.97,1.3,1.62.16.73-.41,1.3-1.05,1.3-.81,0-1.38-.89-1.54-1.46-.16-.65.81-.97,1.3-1.46Z"/><path class="cls-6" d="m136.49,190.32c2.6-.16,5.03-.32,7.47-.49v.49h-7.47Z"/><path class="cls-6" d="m289.88,103.48c1.14.32,1.87.65,2.11,1.62.08.32-.24.49-.49.4-1.05-.16-1.3-.97-1.62-2.03Z"/><path class="cls-5" d="m163.76,11.85c1.95-2.92,3.25-6.09,4.06-9.5.16-.57.32-1.54,1.14-1.3.73.24.49,1.06.4,1.7-.16,4.06-2.27,6.9-5.6,9.09Z"/><path class="cls-3" d="m160.67,262.63c-2.68-.32-5.36-.65-8.03-1.05-.65-.08-1.71-.16-1.54-1.14.24-1.14,1.14-.24,1.7-.16,3.9.49,7.79.57,11.61-.32,1.87-.41,3.81-.65,5.6-1.46.32-.16.81-.32,1.05.08.32.49-.16.81-.49,1.05-2.92,2.19-6.41,2.52-9.9,3Z"/><path class="cls-3" d="m186.64,224.4c-1.14,1.54-3.08,1.3-4.54,2.19-3.98,2.43-8.28,3.9-12.99,4.14-.24,0-.49,0-.97-.08,2.43-1.06,4.63-1.62,6.9-2.19,3-.73,5.76-2.19,8.6-3.49.89-.4,1.87-1.06,3-.57Z"/><path class="cls-3" d="m186.64,224.48c.16-1.38,1.38-1.3,2.35-1.54-.57.73-1.3,1.3-2.35,1.54Z"/><path class="cls-3" d="m48.27,127.58c-5.03-.41-8.6-2.19-11.85-4.87-.81-.65-1.62-1.3-2.35-2.03-.81-.81-1.46-1.95-.65-2.92.73-.97,2.03-.73,3-.24,1.46.73,2.84,1.54,4.3,2.27,2.11,1.06,4.3,2.11,6.82,1.79,1.7-.16,3,.65,3.49,2.43.65,2.11-.97,3.65-2.76,3.57Z"/><path class="cls-3" d="m93.64,193.56c0,1.05-.08,2.11-1.22,2.35-1.14.24-1.46-.65-1.79-1.62-.41-1.46-1.3-2.35-2.76-3-2.52-1.05-3.41-3.57-4.22-5.93-.16-.49-.08-.89.41-1.14.57-.32.97.08,1.3.49.65.89,1.3,1.7,1.95,2.6.89,1.22,2.11,1.95,3.49,2.35,2.19.65,2.84,1.54,2.84,3.9Z"/><path class="cls-8" d="m32.04,105.1c.08,1.14-.24,2.19-.57,3.25-.32,1.14-.89,2.35.65,3.17.41.24.49.73.24,1.22-.24.49-.73.4-1.22.32-1.54-.24-2.52-.97-2.35-2.68.16-1.14.32-2.27.41-3.41.08-.81,0-1.62-.41-2.43-.24-.49-1.3-.89-.73-1.54.57-.65,1.3-.73,2.11-.24,1.14.49,1.79,1.3,1.87,2.35Z"/><path class="cls-6" d="m175.04,207.28c.32.16.73.24,1.06.41,1.22.73,2.68.41,3.98.81h-.08c.89.41,2.11.73,1.79,2.11-.32,1.22-1.46,1.3-2.52,1.38-2.19.08-4.46-1.46-5.11-3.41-.32-.89-.57-1.78.89-1.3Z"/><path class="cls-3" d="m60.52,135.29c2.27,1.62,4.3,3.57,5.03,6.33,1.06,3.89,2.35,7.71,3.9,11.52-1.7-1.46-2.43-3.57-3.08-5.52-1.46-4.46-2.19-9.01-5.84-12.34Z"/><path class="cls-3" d="m65.47,114.76c3.33,1.22,4.38,7.31,2.11,11.85-.49-4.22,1.22-8.36-2.11-11.85Z"/><path class="cls-3" d="m106.78,190.88c-2.19.16-3.98-.08-5.76.32-1.7.4-3.33.89-4.54,2.27-.24.24-.57.89-1.06.32-.41-.49-.08-.89.24-1.22,1.54-1.38,3.49-2.03,5.44-2.35,1.71-.33,3.57-.81,5.68.65Z"/><path class="cls-3" d="m176.09,207.68c-.73.08-1.79.08-1.54.73.65,1.62,2.43,3.08,4.3,3.16.97,0,2.11.16,2.52-.97.4-1.05-.57-1.54-1.3-2.11,1.22.08,2.27.49,2.27,1.87-.08,1.38-1.14,1.7-2.35,1.79-3.08.32-6.09-1.87-6.65-4.95-.08-.49-.32-1.14.16-1.46.65-.41.81.41,1.14.73.08.24,5.68,1.46,1.46,1.22Z"/><path class="cls-3" d="m46.32,94.06c4.46,1.7,4.71,6.17,6.41,9.66-2.92-2.76-2.68-7.55-6.41-9.66Z"/><path class="cls-3" d="m81.62,202c-.97-3-1.87-5.92-1.79-9.09,1.22,2.84,1.62,6.01,1.79,9.09Z"/><path class="cls-3" d="m155.48,210.69c-3.16,2.68-6.82,4.63-10.14,7.63.97-1.95,6.33-5.92,10.14-7.63Z"/><path class="cls-3" d="m25.87,99.01c1.22.16,2.35.24,2.27,1.87-.08.81-.41,1.54-1.38,1.46-1.54-.08-1.79-1.22-1.87-2.43-.08-.73.32-.97.97-.89Z"/><path class="cls-3" d="m243.86,163.29c.97-.24,1.79-.97,3.49-.89-2.68,1.3-4.06,3.17-4.79,5.6q-.73-1.3,1.3-4.71Z"/><path class="cls-3" d="m225.11,184.55c-3.25,1.46-6.41,3.08-9.33,5.76,1.14-2.43,6.01-5.36,9.33-5.76Z"/><path class="cls-3" d="m239.56,180.82c1.62-1.87,3.17-3.57,4.79-5.36-.32,2.27-2.68,4.95-4.79,5.36Z"/><path class="cls-3" d="m141.76,241.93c.49.16.97.41,1.14.89.32.97.32,2.03-.73,2.52-.97.41-1.62-.41-1.78-1.22-.08-.97-.24-2.27,1.38-2.19-.08.16-.08.24,0,.41.08.24.16.49.24.73-.08-.16-.08-.32-.16-.57-.08-.24-.16-.41-.08-.57Z"/><path class="cls-3" d="m121.63,218.4c-2.35.4-3.33-1.71-2.27-5.2.73,1.95-.57,4.63,2.27,5.2Z"/><path class="cls-3" d="m138.92,260.03c-2.03-.97-3-3.49-2.35-6.17.81,2.19.32,4.63,2.35,6.17Z"/><path class="cls-8" d="m174.23,203.22c0,.81-.32,1.22-.97,1.3-.73.08-1.22-.24-1.3-1.06-.08-.73.32-1.14.97-1.22.73-.08,1.14.32,1.3.97Z"/><path class="cls-8" d="m82.27,182.61c-.65,0-1.14-.33-1.22-.97-.08-.73.49-1.22,1.06-1.3.57-.08,1.06.41,1.06,1.06.08.57-.08,1.14-.89,1.22Z"/><path class="cls-3" d="m123.18,199.89c1.71,1.87,2.35,4.3,3.25,6.57-1.22-2.11-2.6-4.14-3.25-6.57Z"/><path class="cls-3" d="m131.54,231.63c-1.71-2.11-.73-4.63-.81-6.9,0,2.27.08,4.63.81,6.9Z"/><path class="cls-3" d="m176.42,190.15c1.46-.41,2.92-.41,4.22.73-1.38-.49-2.76-.73-4.22-.73Z"/><path class="cls-3" d="m130.97,223.1c-.4-1.38.65-2.84-.24-4.22.73.81.89,2.68.24,4.22Z"/><path class="cls-3" d="m123.18,199.89c-1.22-1.22-1.87-2.6-1.62-4.38.49,1.46,1.06,2.92,1.62,4.38Z"/><path class="cls-3" d="m186.8,211.5c1.06-.41,2.11-.73,3.57-1.3-1.14,1.46-2.43,1.14-3.57,1.3Z"/><path class="cls-3" d="m213.51,192.18c-.41,1.22-1.22,1.95-1.95,2.76q0-1.3,1.95-2.76Z"/><path class="cls-3" d="m160.51,198.03c-.65.81-1.22,1.62-1.87,2.35,0-1.22.73-1.95,1.87-2.35Z"/><path class="cls-3" d="m180.07,208.5c3.49,1.3-2.27-1.95-3.98-.81,1.38,0,2.68.32,3.98.81Z"/><path class="cls-3" d="m184.69,194.21c.57.65,1.05,1.22,1.62,1.87-.81-.33-1.38-.89-1.62-1.87Z"/><path class="cls-3" d="m162.29,195.59c.24-.73.73-1.14,1.71-1.46-.32,1.06-1.14,1.14-1.71,1.46Z"/><path class="cls-3" d="m45.1,93.9c.65,0,1.14,1.46-1.79,1.14.08-.89.65-1.14,1.79-1.14Z"/><path class="cls-3" d="m200.36,91.38c-.57-1.54-.41-2.76-.49-3.9-.16-3.25-1.46-6.09-3.17-8.68-.97-1.54-2.84-2.19-4.71-2.35-.65-.08-1.22,0-1.79-.49-5.44-4.95-10.55-10.14-14.37-16.56-.24-.41-.49-.89-.81-1.38-.41-.65-.57-1.3.08-1.95.73-.73,1.3-.16,1.87.32,3.49,3.25,7.39,5.92,11.28,8.6,1.14.73,2.27,1.54,3.41,2.19,5.11,2.92,7.55,7.79,8.6,13.31.65,3.41,1.3,6.98.08,10.88Z"/><path class="cls-3" d="m132.83,119.95v3.81c0,.41.24.97-.32,1.22-.57.24-1.14.08-1.62-.4-2.6-2.68-2.35-8.03.49-9.58.41-.24.81-.81,1.38-.49.65.33.33.89.33,1.38-.08,1.22-.24,2.52-.24,4.06Z"/><path class="cls-3" d="m202.47,101.85c-.08.81-.41,1.71-1.46,2.03-1.3.41-2.19-.49-3-1.3-.81-.73,0-1.38.32-2.03.65-1.38,1.22-2.84,1.79-4.22.08-.24.08-.73.57-.65.16,0,.49.32.49.49.24,1.87,1.22,3.57,1.3,5.68Z"/><path class="cls-9" d="m134.46,110.29c-.73-.08-1.22-.33-1.14-1.06.08-.97.41-1.95,1.54-2.11.73-.08,1.06.49.97,1.14-.08.89-.41,1.7-1.38,2.03Z"/><path class="cls-3" d="m266.02,143.24c3.08-5.84,6.09-11.69,9.41-17.94-5.6,4.06-7.38,10.06-9.98,15.58-.57-.32-.41-.73-.32-1.06,2.27-5.68,4.46-11.36,9.58-15.26.49-.41,1.05-1.06,1.62-.65.65.49.24,1.22-.08,1.71-3.49,5.6-5.92,11.77-9.42,17.45-.08.16-.16.32-.24.49-.16-.08-.41-.16-.57-.32Z"/><path class="cls-3" d="m3.06,260.11c.08,12.09,2.11,23.7,6.9,34.9-5.19-11.12-7.55-22.72-6.9-34.9Z"/><path class="cls-3" d="m19.29,309.7c-3.9-3.9-6.65-8.6-8.93-13.63,2.84,4.63,5.6,9.33,8.93,13.63Z"/><path class="cls-3" d="m100.45,286.16c.97-4.46,1.95-9.01,2.84-13.47-.32,4.63-1.14,9.17-2.43,13.63-.08-.08-.24-.16-.41-.16Z"/><path class="cls-3" d="m38.77,323.9c-2.6-.65-5.03-1.7-7.06-3.57,2.35,1.14,4.71,2.35,7.06,3.57Z"/><path class="cls-3" d="m80.89,315.62c1.54-1.54,3.17-3.08,4.63-4.54-1.22,1.79-2.92,3.16-4.63,4.54Z"/><path class="cls-3" d="m55.33,326.82h-4.71v-.24h4.79c0,.08,0,.16-.08.24Z"/><path class="cls-3" d="m23.84,314.81c-.73-.41-1.46-1.38-2.03-2.43.81.97,1.54,1.87,2.03,2.43Z"/><path class="cls-3" d="m27.49,317.25c.57.49,1.22.89,1.79,1.38-.89-.08-1.62-.32-1.79-1.38Z"/><path class="cls-3" d="m304.57,292.49c1.05-3.41,2.76-6.49,3.81-9.9,1.54-5.03,2.6-10.14,3-15.34.16-1.95.33-3.9.57-5.84.24,11.04-1.87,21.51-7.14,31.33-.08-.08-.16-.16-.24-.24Z"/><path class="cls-3" d="m296.86,304.26c-.97,2.27-2.92,3.65-4.71,5.27-3.33,3-6.9,5.76-11.2,7.47,2.03-1.38,4.06-2.68,6.09-4.06,3.17-2.11,5.84-4.79,8.52-7.55.4-.49.65-1.06,1.3-1.14Z"/><path class="cls-3" d="m304.81,292.66c-1.22,2.52-2.27,5.03-4.38,6.9,1.22-2.43,2.6-4.87,4.14-7.06.08.08.16.16.24.16Z"/><path class="cls-3" d="m272.75,320.25c1.46-1.14,3.25-1.22,4.87-1.79-1.54.81-3,1.79-4.87,1.79Z"/><path class="cls-3" d="m300.35,299.56c-.65,1.95-1.95,3.41-3.49,4.71.89-1.79,2.11-3.25,3.49-4.71Z"/><path class="cls-3" d="m268.86,321.06c-1.79.81-3.65.97-5.52.49,1.79-.16,3.65-.32,5.52-.49Z"/><path class="cls-3" d="m217.89,290.22c-.73-.81-1.22-1.62-1.22-3.17.73,1.3,1.22,2.11,1.22,3.17Z"/><path class="cls-3" d="m272.75,320.25c-1.22.57-2.52.97-3.9.81,1.22-.73,2.52-.81,3.9-.81Z"/><path class="cls-3" d="m198.17,162.48c-3.17-1.95-6.17-4.14-10.06-.89,1.46-3.57,6.09-3.08,10.06.89Z"/><path class="cls-3" d="m176.74,171.89c-.41,1.14-1.38,1.38-2.43,1.54-.65.08-1.22-.24-1.22-.97.08-1.14.81-1.7,1.95-1.62.81,0,1.54,0,1.71,1.05Z"/><path class="cls-3" d="m225.27,160.53c-.65-.16-1.79.24-1.62-.97.16-1.05.81-2.19,2.11-2.03.89.08,1.62.97,1.3,2.03-.16.89-.65,1.7-1.79.97.08-.32.08-.65.16-.97-.08.41-.08.73-.16.97Z"/><path class="cls-3" d="m209.29,166.86c-1.22-1.95-2.76-2.27-4.46-2.6,2.11-.89,3.49-.16,4.46,2.6Z"/><path class="cls-3" d="m226.65,141.7c.89-.97,2.03-1.46,3.33-1.79-1.06.73-2.11,1.38-3.08,2.11-.08-.16-.16-.24-.24-.32Z"/><path class="cls-3" d="m76.19,112c1.22-.65,1.87.24,2.52.89,1.54,1.54,3,3.16,4.54,4.79.73.73,1.3,1.54,1.38,2.68.08.89.57,1.95-.65,2.27-1.06.32-1.46-.57-1.87-1.3-1.3-2.19-2.6-4.46-3.98-6.65-.57-.89-1.3-1.7-1.95-2.68Z"/><path class="cls-3" d="m105.4,152.9c3.49,1.62,5.27,4.71,7.06,7.87-2.52-2.44-4.22-5.68-7.06-7.87Z"/><path class="cls-3" d="m72.53,110.29c-.97-.24-1.3-.81-.81-1.71.32-.65.97-.81,1.7-.57.73.32.81.97.57,1.62-.24.89-.65,1.38-1.46.65Z"/><path class="cls-3" d="m128.29,183.82c-1.3.49-2.68,1.22-4.38-.16,1.78-.08,3.08-.32,4.38.16Z"/><path class="cls-3" d="m139.25,171.41c-.73.89-1.22,1.46-1.62,2.03q-.32-1.3,1.62-2.03Z"/><path class="cls-3" d="m76.19,127.74c1.7-.57,2.6.16,3.9,1.38-1.62-.41-2.43-1.38-3.9-1.38Z"/><path class="cls-3" d="m49.81,163.45c-.89-.49-1.79-.81-2.52-1.38-.97-.81-2.11-1.46-1.22-3.33.89-1.95,1.3-4.14.32-6.49-1.22-2.68-1.62-5.68-1.79-8.68,0-.97,0-1.95.73-3.25,0,3.25.08,6.09.89,8.76.32,1.06.57,2.11.89,3.17.16.49.16,1.22.73,1.3.65.08.81-.73,1.22-1.05.41-.41,0-1.87,1.14-1.22.81.49.73,1.54,0,2.35-1.62,1.62-2.35,3.65-2.68,5.93-.24,1.79.57,2.43,2.11,2.52.57.08,1.14-.08,1.7-.08,2.19.08,3.17.81,3.25,3,.16,2.6.81,5.11.16,7.71-.24,1.05.49,1.78,1.14,2.51-.73-.16-1.79-.16-1.87-1.06-.16-4.06-2.76-7.22-4.22-10.71,1.22-.4,1.87.32,2.19,1.38-.41-1.06-.97-1.79-2.19-1.38Z"/><path class="cls-5" d="m49.81,163.45c1.95-1.05,2.6-.81,2.92,1.3.08.89.49,1.7.08,2.84-1.38-1.22-1.38-3.33-3-4.14Z"/><path class="cls-3" d="m48.43,146.65c-.24-2.11-.57-4.14-.81-6.25.65,2.03,1.38,4.06.81,6.25Z"/><path class="cls-3" d="m281.52,100.8c-3.08,0-6.01.73-9.01,1.38-.89.16-1.79.41-2.19-.65-.41-.97.49-1.38,1.14-1.79,3.82-2.19,7.63-3.73,12.09-1.95.81.32,1.79.32,2.68.57.97.24,1.62,1.06,1.54,2.03-.16,1.14-1.22.57-1.95.57-1.46.08-2.92-.08-4.3-.16Z"/><path class="cls-3" d="m262.36,115.81c-.89-3.82.57-6.9,2.84-9.82.57-.73,1.3-1.46,1.95-2.11.32-.32.65-.49.97-.08.24.33-.08.57-.33.81-1.22,1.22-2.27,2.43-3.16,3.89-1.38,2.27-1.87,4.79-2.27,7.31Z"/><path class="cls-3" d="m264.96,126.61c-1.14.08-.89-.57-.73-1.3.89-3.57,2.52-6.74,4.87-9.58-1.3,3.73-3.33,7.14-4.14,10.88Z"/><path class="cls-8" d="m292.07,136.75c.73-.08.81.41.73.89-.08.89-.16,1.95-1.22,2.19-.65.16-.81-.49-.89-1.05-.16-1.14.65-1.62,1.38-2.03Z"/><path class="cls-3" d="m292.88,134.64c-.32-.08-.65-.24-.57-.57,0-.16.24-.49.41-.49.32-.08.57.24.57.57,0,.24-.08.41-.41.49Z"/><path class="cls-6" d="m47.46,126.44c-5.19-.49-9.09-3.33-12.74-6.74-.49-.41-.97-1.14-.49-1.7.57-.73,1.3-.24,1.87.16,2.43,1.46,4.63,3.25,7.47,3.98,1.3.32,2.43.81,3.73.49.57-.16,1.06.08,1.54.16,1.06.33,1.87.97,1.62,2.03-.24,1.06-1.14,1.62-2.35,1.62-.08.08-.32.08-.65,0Z"/><path class="cls-6" d="m85.52,187.31c1.54,1.54,3.17,2.76,5.44,3.17,1.22.24,2.27,2.6,1.95,3.9-.16.49-.73.97-.89.41-.57-3.41-4.22-3.73-5.76-6.09-.24-.41-.49-.89-.73-1.38Z"/><path class="cls-6" d="m31.63,112.49c-1.62.16-1.79-.73-1.95-1.38.49.32,1.14.81,1.95,1.38Z"/><path class="cls-6" d="m27.17,100.8c-.16.32-.16.89-.65.73-.49-.16-.57-.81-.65-1.3-.08-.32.08-.65.49-.57.57.08.81.57.81,1.14Z"/><path class="cls-6" d="m141.76,241.93c.57.89,1.06,1.79-.08,2.84-.57-1.05-.4-1.95.08-2.84Z"/><path class="cls-6" d="m178.12,59.08c4.06,2.92,8.04,5.92,12.09,8.68,2.6,1.79,5.11,3.57,6.74,6.33.89,1.54,1.54,3.08,2.03,5.36-2.11-2.84-4.54-4.14-7.3-4.87-.97-.24-1.54-1.14-2.27-1.79-4.46-3.9-8.44-8.36-11.28-13.72Z"/><path class="cls-6" d="m131.78,115.81v7.79c-2.19-2.03-2.11-5.93,0-7.79Z"/><path class="cls-6" d="m200.68,98.36c.57,1.3.73,2.35.65,3.49-.08.65-.24,1.22-.97,1.3-.41.08-.89-.16-1.22-.41-.49-.49,0-.97.16-1.38.49-.97.89-1.79,1.38-3Z"/><path class="cls-6" d="m176.01,171.65c-.65.73-1.22.89-1.95.73.32-.89.89-.97,1.95-.73Z"/><path class="cls-6" d="m225.27,160.53c-.24-.32-1.05-.32-.81-.89.16-.57.49-1.22,1.14-1.46.65-.33.81.24.81.73,0,.81-.57,1.3-1.14,1.62Z"/><path class="cls-6" d="m80,115.73c1.7,1.71,4.3,2.92,3.73,6.25-1.79-1.87-2.68-4.14-3.73-6.25Z"/><path class="cls-6" d="m72.53,110.29c0-.57-.49-1.3.41-1.79.57.81.41,1.38-.41,1.79Z"/><path class="cls-6" d="m271.53,101.29c4.71-3.49,9.74-3.73,15.02-1.38-5.03-.08-10.06.16-15.02,1.38Z"/></g></svg>